# xmcd
#
# Track frame offsets:
#	150
#	12632
#	26161
#	38393
#	51095
#	64084
#	76683
#	90265
#	99310
#	112295
#	125920
#
# Disc length: 1853 seconds
#
# Revision: 0
# Processed by: cddbd v1.5.1PL2 Copyright (c) Steve Scherf et al.
# Submitted via: EasyCDDAExtractor 9.1.3.1
#
DISCID=87073b0b
DTITLE=Tex Ritter - America's Most Beloved Cowboy
DYEAR=2006
DGENRE=Country
TTITLE0=I Can't Get My Foot Off The Rail
TTITLE1=There's A New Moon Over My Shoulder
TTITLE2=Don't Make Me Sorry
TTITLE3=I'm Wastin' My Tears On You
TTITLE4=You Will Have To Pay (For Your Yesterday)
TTITLE5=(I've Got Spurs That) Jingle, Jingle, Jingle
TTITLE6=Long Time Gone
TTITLE7=Froggy Went A Courtin'
TTITLE8=Pecos Bill
TTITLE9=When You Leave Don't Slam The Door
TTITLE10=Jealous Heart
EXTD=
EXTT0=
EXTT1=
EXTT2=
EXTT3=
EXTT4=
EXTT5=
EXTT6=
EXTT7=
EXTT8=
EXTT9=
EXTT10=
PLAYORDER=
